<svg xmlns="http://www.w3.org/2000/svg" viewBox="0 0 590 490" width="590" height="490" role="img" aria-label="Modern Enga orchid">
  <defs>
    <filter id="softShadow" x="-20%" y="-20%" width="140%" height="140%">
      <feDropShadow dx="0" dy="8" stdDeviation="10" flood-color="#000000" flood-opacity="0.12"/>
    </filter>
  </defs>

  <g fill-rule="evenodd" filter="url(#softShadow)">
    <path d="M 11.0,190.0 L 11.0,196.0 L 37.0,242.0 L 69.0,279.0 L 108.0,307.0 L 155.0,320.0 L 185.0,293.0 L 191.0,275.0 L 201.0,267.0 L 202.0,235.0 L 213.0,219.0 L 224.0,215.0 L 221.0,201.0 L 183.0,183.0 L 153.0,177.0 L 114.0,176.0 L 20.0,185.0 Z" fill="#F4F4F5"/>
    <path d="M 579.0,190.0 L 570.0,185.0 L 476.0,176.0 L 437.0,177.0 L 407.0,183.0 L 369.0,201.0 L 366.0,215.0 L 377.0,219.0 L 385.0,229.0 L 390.0,250.0 L 389.0,267.0 L 399.0,275.0 L 405.0,293.0 L 435.0,320.0 L 482.0,307.0 L 521.0,279.0 L 553.0,242.0 L 574.0,206.0 Z" fill="#F4F4F5"/>
    <path d="M 295.0,11.0 L 267.0,45.0 L 242.0,92.0 L 228.0,150.0 L 224.0,196.0 L 225.0,215.0 L 234.0,215.0 L 246.0,203.0 L 261.0,201.0 L 273.0,205.0 L 289.0,222.0 L 290.0,255.0 L 283.0,299.0 L 307.0,299.0 L 300.0,255.0 L 300.0,225.0 L 305.0,216.0 L 317.0,205.0 L 329.0,201.0 L 344.0,203.0 L 356.0,215.0 L 365.0,215.0 L 363.0,156.0 L 348.0,92.0 L 323.0,45.0 Z" fill="#F6C800"/>
    <path d="M 185.0,295.0 L 159.0,317.0 L 135.0,345.0 L 125.0,366.0 L 114.0,405.0 L 89.0,464.0 L 94.0,473.0 L 128.0,476.0 L 148.0,474.0 L 171.0,467.0 L 211.0,448.0 L 244.0,426.0 L 225.0,393.0 L 224.0,377.0 L 227.0,367.0 L 215.0,366.0 L 204.0,361.0 L 191.0,346.0 Z" fill="#F6C800"/>
    <path d="M 405.0,295.0 L 399.0,346.0 L 386.0,361.0 L 375.0,366.0 L 363.0,367.0 L 366.0,377.0 L 365.0,393.0 L 346.0,426.0 L 379.0,448.0 L 419.0,467.0 L 442.0,474.0 L 462.0,476.0 L 496.0,473.0 L 501.0,464.0 L 476.0,405.0 L 465.0,366.0 L 455.0,345.0 L 441.0,327.0 Z" fill="#F6C800"/>
    <path d="M 245.0,212.0 L 241.0,219.0 L 241.0,236.0 L 246.0,254.0 L 257.0,271.0 L 271.0,283.0 L 276.0,285.0 L 282.0,254.0 L 281.0,224.0 L 275.0,217.0 L 266.0,211.0 L 254.0,209.0 Z" fill="#FCFCFD"/>
    <path d="M 345.0,212.0 L 336.0,209.0 L 327.0,210.0 L 315.0,217.0 L 309.0,224.0 L 308.0,254.0 L 314.0,285.0 L 319.0,283.0 L 333.0,271.0 L 344.0,254.0 L 349.0,236.0 L 349.0,219.0 Z" fill="#FCFCFD"/>
    <path d="M 217.0,226.0 L 210.0,238.0 L 208.0,252.0 L 209.0,265.0 L 216.0,277.0 L 229.0,288.0 L 268.0,306.0 L 275.0,303.0 L 275.0,294.0 L 258.0,283.0 L 240.0,261.0 L 235.0,246.0 L 233.0,223.0 L 223.0,223.0 Z" fill="#FCFCFD"/>
    <path d="M 373.0,226.0 L 367.0,223.0 L 357.0,223.0 L 355.0,246.0 L 350.0,261.0 L 332.0,283.0 L 315.0,294.0 L 315.0,303.0 L 322.0,306.0 L 361.0,288.0 L 374.0,277.0 L 381.0,265.0 L 382.0,252.0 L 380.0,238.0 Z" fill="#FCFCFD"/>
    <path d="M 200.0,276.0 L 194.0,287.0 L 193.0,294.0 L 194.0,310.0 L 200.0,319.0 L 210.0,322.0 L 262.0,323.0 L 265.0,312.0 L 229.0,297.0 L 219.0,291.0 L 204.0,275.0 Z" fill="#FCFCFD"/>
    <path d="M 390.0,276.0 L 386.0,275.0 L 371.0,291.0 L 361.0,297.0 L 325.0,312.0 L 328.0,323.0 L 380.0,322.0 L 390.0,319.0 L 397.0,306.0 L 396.0,287.0 Z" fill="#FCFCFD"/>
    <path d="M 271.0,318.0 L 270.0,329.0 L 273.0,335.0 L 283.0,340.0 L 307.0,340.0 L 315.0,337.0 L 320.0,329.0 L 319.0,318.0 L 313.0,311.0 L 304.0,307.0 L 282.0,308.0 Z" fill="#FCFCFD"/>
    <path d="M 196.0,330.0 L 196.0,335.0 L 202.0,349.0 L 213.0,358.0 L 231.0,359.0 L 235.0,351.0 L 248.0,338.0 L 257.0,334.0 L 262.0,334.0 L 262.0,331.0 L 219.0,329.0 Z" fill="#FCFCFD"/>
    <path d="M 394.0,330.0 L 371.0,329.0 L 328.0,331.0 L 328.0,334.0 L 333.0,334.0 L 342.0,338.0 L 355.0,351.0 L 359.0,359.0 L 377.0,358.0 L 388.0,349.0 L 394.0,335.0 Z" fill="#FCFCFD"/>
    <path d="M 332.0,342.0 L 321.0,342.0 L 314.0,347.0 L 299.0,350.0 L 279.0,348.0 L 269.0,342.0 L 258.0,342.0 L 252.0,345.0 L 244.0,353.0 L 233.0,374.0 L 232.0,389.0 L 239.0,405.0 L 268.0,440.0 L 293.0,465.0 L 293.0,467.0 L 295.0,467.0 L 337.0,423.0 L 351.0,405.0 L 358.0,389.0 L 358.0,379.0 L 354.0,367.0 L 346.0,353.0 L 338.0,345.0 Z" fill="#FCFCFD"/>
  </g>

  <g fill="#111827" opacity="0.9">
    <circle cx="269.9" cy="356.8" r="4.9"/>
    <circle cx="320.1" cy="356.8" r="4.9"/>
    <circle cx="294.6" cy="363.0" r="5.1"/>
    <circle cx="249.5" cy="365.1" r="4.6"/>
    <circle cx="340.5" cy="365.1" r="4.6"/>
    <circle cx="270.5" cy="379.5" r="4.9"/>
    <circle cx="319.5" cy="379.5" r="4.9"/>
    <circle cx="246.9" cy="386.2" r="4.9"/>
    <circle cx="343.1" cy="386.2" r="4.9"/>
    <circle cx="294.8" cy="389.5" r="5.1"/>
    <circle cx="278.1" cy="402.0" r="4.4"/>
    <circle cx="311.9" cy="402.0" r="4.4"/>
    <circle cx="257.1" cy="406.8" r="4.9"/>
    <circle cx="332.9" cy="406.8" r="4.9"/>
    <circle cx="294.4" cy="417.4" r="4.6"/>
    <circle cx="274.6" cy="426.2" r="4.1"/>
    <circle cx="315.4" cy="426.2" r="4.1"/>
    <circle cx="295.1" cy="446.5" r="4.1"/>
  </g>
</svg>
